<?xml version="1.0" standalone="no"?>
<!DOCTYPE svg PUBLIC "-//W3C//DTD SVG 20010904//EN"
 "http://www.w3.org/TR/2001/REC-SVG-20010904/DTD/svg10.dtd">
<svg version="1.0" xmlns="http://www.w3.org/2000/svg"
 width="200.000000pt" height="200.000000pt" viewBox="0 0 200.000000 200.000000"
 preserveAspectRatio="xMidYMid meet">

<g transform="translate(0.000000,200.000000) scale(0.100000,-0.100000)"
fill="#000000" stroke="none">
<path fill="#4A9BC9" d="M469 1737 c-27 -21 -41 -57 -35 -92 7 -36 21 -50 88 -89 41 -23 77
-62 66 -70 -2 -2 -46 -10 -98 -18 -254 -40 -380 -195 -380 -466 0 -202 70
-381 204 -520 103 -107 298 -196 465 -212 95 -9 233 1 299 21 37 11 53 10 113
-6 94 -24 171 -17 255 25 83 41 85 61 9 85 -30 10 -55 20 -55 22 0 3 33 41 74
84 84 90 148 195 196 322 32 84 36 90 91 128 87 59 118 113 122 215 l2 59 -35
-3 c-61 -5 -134 -24 -169 -44 l-34 -19 -56 25 c-31 13 -74 27 -96 31 -22 3
-51 8 -64 11 -23 5 -23 4 -19 -73 5 -101 27 -147 90 -186 26 -17 48 -32 48
-34 0 -2 -15 -12 -32 -23 -51 -31 -130 -27 -195 10 -64 37 -115 103 -177 231
-97 200 -233 302 -428 323 -44 5 -68 12 -68 20 0 16 37 49 77 70 72 36 96 114
48 161 -13 14 -34 25 -45 25 -27 0 -70 -22 -94 -49 -19 -21 -19 -21 -33 -1
-30 43 -101 62 -134 37z m72 -47 c32 -18 68 -112 42 -109 -22 2 -98 58 -101
73 -8 41 18 57 59 36z m207 -7 c15 -29 -1 -53 -56 -83 -58 -31 -63 -26 -37 38
25 59 74 83 93 45z m23 -267 c160 -34 253 -119 353 -325 84 -173 181 -251 312
-251 105 0 224 96 172 137 -7 6 -30 16 -50 22 -51 17 -84 58 -92 117 -3 26 -4
49 -2 52 13 13 113 -24 145 -53 l36 -33 37 33 c35 33 90 55 135 55 20 0 21 -2
9 -48 -19 -70 -31 -89 -79 -116 -68 -40 -92 -74 -137 -190 -50 -128 -109 -219
-193 -299 -33 -31 -63 -57 -66 -57 -9 0 -83 50 -125 84 -30 23 -39 26 -51 16
-8 -7 -15 -18 -15 -25 0 -16 138 -121 203 -155 26 -13 47 -27 47 -31 0 -10
-76 -29 -118 -29 -23 0 -72 11 -109 25 -56 20 -78 35 -125 86 -39 42 -61 60
-72 56 -18 -7 -22 -42 -6 -52 6 -3 10 -11 10 -18 0 -8 -3 -8 -12 1 -7 7 -19
12 -27 12 -56 1 -313 203 -295 232 4 6 3 8 -3 5 -5 -3 -27 10 -49 28 -68 60
-128 76 -278 74 l-131 -1 -13 37 c-21 65 -33 177 -26 249 15 160 83 270 203
331 84 43 285 58 412 31z m-265 -721 c20 -8 82 -59 137 -113 139 -134 221
-187 352 -228 55 -18 57 -19 30 -25 -17 -4 -59 -7 -94 -8 -53 -1 -73 4 -123
31 -90 48 -197 153 -238 232 -18 36 -37 66 -41 66 -23 0 2 -55 66 -145 40 -57
125 -132 190 -169 l30 -17 -56 5 c-102 8 -137 25 -215 101 -56 56 -81 91 -115
161 -28 57 -45 82 -47 70 -6 -30 63 -156 120 -220 l53 -60 -64 35 c-78 42
-197 156 -240 230 -17 30 -31 57 -31 62 0 14 249 8 286 -8z"/>
<path fill="#020000" d="M680 927 c-13 -7 -34 -27 -46 -45 -64 -95 79 -208 158 -124 15 15 29
39 33 53 9 38 -18 95 -54 113 -36 19 -58 20 -91 3z m108 -58 c4 -30 -22 -46
-44 -28 -17 14 -18 46 -1 52 25 11 42 1 45 -24z"/>
<path fill="#020000" d="M756 648 c-25 -32 -26 -48 -2 -48 16 0 56 46 56 65 0 25 -27 17 -54
-17z"/>
</g>
</svg>
