<?xml version="1.0" encoding="UTF-8" standalone="no"?>
<!DOCTYPE svg PUBLIC "-//W3C//DTD SVG 1.1//EN" "http://www.w3.org/Graphics/SVG/1.1/DTD/svg11.dtd">
<svg xmlns="http://www.w3.org/2000/svg" version="1.1" viewBox="0.00 0.00 135.00 135.00">
<path fill="#1e6fff" d="
  M 128.07 68.56
  A 60.51 60.51 0.0 0 1 67.56 129.07
  A 60.51 60.51 0.0 0 1 7.05 68.56
  A 60.51 60.51 0.0 0 1 67.56 8.05
  A 60.51 60.51 0.0 0 1 128.07 68.56
  Z
  M 124.96 68.57
  A 57.40 57.40 0.0 0 0 67.56 11.17
  A 57.40 57.40 0.0 0 0 10.16 68.57
  A 57.40 57.40 0.0 0 0 67.56 125.97
  A 57.40 57.40 0.0 0 0 124.96 68.57
  Z"
/>
<circle fill="#1e6fff" cx="67.57" cy="19.33" r="4.11"/>
<path fill="#1e6fff" d="
  M 92.76 23.52
  L 94.20 22.31
  Q 94.62 21.96 94.94 22.40
  L 95.11 22.64
  Q 95.33 22.96 95.04 23.22
  L 89.27 28.31
  A 0.93 0.93 0.0 0 1 87.73 27.49
  L 88.73 20.01
  Q 88.79 19.55 89.24 19.67
  L 89.57 19.76
  Q 90.13 19.91 90.00 20.48
  Q 89.41 23.02 91.87 23.71
  A 0.99 0.97 -56.4 0 0 92.76 23.52
  Z
  M 88.98 25.89
  Q 88.93 26.02 88.91 26.14
  Q 88.82 26.75 89.39 26.52
  Q 90.66 26.02 91.18 24.75
  A 0.79 0.79 0.0 0 0 89.97 23.83
  Q 89.28 24.37 89.23 25.25
  Q 89.23 25.27 88.98 25.89
  Z"
/>
<path fill="#1e6fff" d="
  M 44.44 27.07
  L 42.87 21.92
  A 0.85 0.85 0.0 0 1 44.29 21.08
  L 49.69 26.64
  Q 50.00 26.97 49.61 27.18
  L 49.33 27.34
  A 0.64 0.64 0.0 0 1 48.55 27.21
  L 44.93 23.39
  A 0.28 0.28 0.0 0 0 44.45 23.66
  L 45.83 28.62
  A 0.83 0.83 0.0 0 1 44.44 29.42
  L 40.77 25.71
  A 0.32 0.32 0.0 0 0 40.24 26.04
  L 41.94 30.63
  Q 42.29 31.57 41.29 31.68
  L 41.00 31.71
  A 0.53 0.53 0.0 0 1 40.43 31.31
  L 38.64 24.09
  A 0.65 0.65 0.0 0 1 39.54 23.34
  L 39.93 23.51
  Q 40.33 23.69 40.60 24.03
  Q 42.12 25.93 44.11 27.31
  A 0.22 0.22 0.0 0 0 44.44 27.07
  Z"
/>
<path fill="#1e6fff" d="
  M 94.52 28.79
  L 93.30 30.67
  A 0.50 0.49 -65.5 0 1 92.75 30.88
  L 92.45 30.79
  Q 91.71 30.56 92.18 29.94
  L 96.55 24.12
  A 0.42 0.40 18.4 0 1 96.87 23.97
  L 97.49 23.99
  Q 98.08 24.01 97.75 24.50
  L 96.06 26.92
  A 0.73 0.73 0.0 0 0 96.22 27.92
  L 98.32 29.49
  Q 98.95 29.96 99.40 29.30
  L 100.77 27.27
  A 0.59 0.58 29.6 0 1 101.51 27.07
  L 101.74 27.18
  A 0.52 0.52 0.0 0 1 101.93 27.97
  L 97.43 33.94
  A 0.56 0.56 0.0 0 1 96.45 33.42
  Q 96.87 32.20 97.94 31.48
  A 0.55 0.54 -43.3 0 0 97.97 30.59
  L 95.37 28.63
  Q 94.86 28.25 94.52 28.79
  Z"
/>
<path fill="#1e6fff" d="
  M 35.45 27.80
  Q 34.79 27.06 34.90 26.20
  Q 34.94 25.90 35.24 25.86
  L 35.61 25.82
  A 0.49 0.48 76.8 0 1 36.13 26.15
  L 38.61 33.21
  A 0.96 0.96 0.0 0 1 37.22 34.36
  L 30.54 30.52
  Q 30.21 30.33 30.41 30.00
  L 30.61 29.69
  A 0.48 0.48 0.0 0 1 31.16 29.49
  Q 31.87 29.72 32.61 30.47
  A 1.95 1.95 0.0 0 0 35.45 27.80
  Z
  M 37.28 32.34
  L 36.37 30.44
  A 0.69 0.69 0.0 0 0 35.24 30.28
  L 34.87 30.71
  A 0.72 0.72 0.0 0 0 35.06 31.82
  L 36.82 32.78
  A 0.34 0.33 -88.3 0 0 37.28 32.34
  Z"
/>
<path fill="#1e6fff" d="
  M 109.43 68.57
  A 41.86 41.86 0.0 0 1 67.57 110.43
  A 41.86 41.86 0.0 0 1 25.71 68.57
  A 41.86 41.86 0.0 0 1 67.57 26.71
  A 41.86 41.86 0.0 0 1 109.43 68.57
  Z
  M 106.25 68.57
  A 38.68 38.68 0.0 0 0 67.57 29.89
  A 38.68 38.68 0.0 0 0 28.89 68.57
  A 38.68 38.68 0.0 0 0 67.57 107.25
  A 38.68 38.68 0.0 0 0 106.25 68.57
  Z"
/>
<path fill="#1e6fff" d="
  M 108.07 37.69
  Q 109.27 40.10 111.77 38.67
  A 0.45 0.45 0.0 0 1 112.43 38.96
  L 112.50 39.31
  Q 112.56 39.61 112.27 39.71
  L 105.37 41.91
  Q 104.29 42.25 103.72 41.28
  Q 103.52 40.94 103.99 40.26
  Q 106.03 37.29 107.80 34.30
  A 0.64 0.63 59.7 0 1 108.98 34.61
  L 108.99 34.93
  Q 109.00 35.46 108.56 35.76
  Q 107.47 36.49 108.07 37.69
  Z
  M 106.55 40.33
  Q 108.15 40.31 107.99 38.91
  A 0.83 0.83 0.0 0 0 106.47 38.56
  L 105.58 39.93
  Q 105.17 40.56 105.92 40.54
  Q 106.27 40.53 106.55 40.33
  Z"
/>
<path fill="#1e6fff" d="
  M 57.30 39.78
  C 55.99 35.74 61.28 33.99 64.14 36.27
  Q 64.52 36.57 65.00 36.52
  Q 74.02 35.45 78.81 42.92
  A 1.12 1.10 73.3 0 0 79.74 43.43
  Q 83.86 43.47 86.74 46.39
  A 0.46 0.46 0.0 0 1 86.49 47.16
  L 84.62 47.48
  A 0.49 0.49 0.0 0 0 84.54 48.42
  Q 86.08 48.98 86.69 50.48
  Q 86.90 51.01 87.47 50.93
  C 91.85 50.27 98.19 52.61 97.34 58.06
  Q 96.72 62.04 93.40 65.22
  A 0.69 0.69 0.0 0 0 93.21 65.89
  C 94.16 69.67 94.02 73.42 91.38 76.55
  Q 90.20 77.96 89.17 79.45
  Q 88.87 79.88 88.39 80.07
  C 84.96 81.41 81.58 81.44 78.30 83.14
  Q 70.49 87.22 61.51 85.09
  Q 61.02 84.98 60.54 85.12
  Q 46.59 89.19 40.70 76.49
  Q 40.48 76.00 39.97 75.82
  Q 31.42 72.78 33.73 63.26
  Q 34.41 60.46 37.28 60.04
  Q 38.14 59.91 40.96 59.89
  Q 41.47 59.88 41.83 59.52
  L 46.16 55.21
  Q 46.54 54.84 46.63 54.31
  Q 47.55 48.34 52.70 45.33
  Q 53.19 45.05 53.45 44.55
  Q 54.73 42.13 57.01 40.60
  Q 57.46 40.30 57.30 39.78
  Z
  M 62.52 37.65
  Q 62.79 37.02 62.11 36.94
  L 60.44 36.72
  A 1.60 1.60 0.0 0 0 59.37 39.65
  Q 61.18 40.82 62.52 37.65
  Z
  M 63.64 40.21
  C 66.02 42.60 67.55 43.32 68.82 47.38
  Q 69.03 48.06 69.71 47.86
  L 74.28 46.57
  Q 74.98 46.37 75.14 45.67
  C 76.59 39.31 69.18 38.67 64.71 38.05
  A 1.27 1.27 0.0 0 0 63.64 40.21
  Z
  M 66.51 46.77
  Q 65.42 43.02 62.01 41.17
  A 0.33 0.32 -82.3 0 0 61.54 41.53
  Q 62.45 45.61 66.10 47.13
  Q 66.69 47.38 66.51 46.77
  Z
  M 58.95 43.94
  Q 58.57 45.58 60.09 45.71
  A 1.07 1.06 -14.2 0 0 61.07 44.07
  L 59.42 41.54
  A 0.63 0.63 0.0 0 0 58.27 41.74
  Q 58.12 42.40 58.61 42.85
  A 1.13 1.12 -62.7 0 1 58.95 43.94
  Z
  M 56.44 43.04
  L 54.93 44.85
  A 0.41 0.41 0.0 0 0 54.98 45.43
  L 55.05 45.49
  A 1.57 1.48 39.9 0 0 57.21 45.36
  L 57.35 45.19
  A 1.57 1.48 39.9 0 0 57.09 43.05
  L 57.02 42.99
  A 0.41 0.41 0.0 0 0 56.44 43.04
  Z
  M 63.39 47.61
  C 58.29 46.06 50.70 46.86 49.21 52.96
  Q 48.86 54.35 49.67 55.54
  C 51.96 58.88 56.65 54.83 58.81 53.69
  C 60.66 52.72 62.93 52.64 64.39 50.28
  A 1.80 1.80 0.0 0 0 63.39 47.61
  Z
  M 76.70 51.55
  L 74.36 50.25
  Q 73.55 49.81 73.29 50.68
  L 72.88 52.02
  Q 72.60 52.94 71.76 52.47
  Q 68.70 50.78 66.51 52.01
  Q 60.65 55.30 54.74 58.38
  Q 50.71 60.49 47.06 57.41
  Q 46.68 57.09 46.31 57.41
  L 41.74 61.22
  Q 41.32 61.58 40.78 61.52
  C 34.67 60.95 33.99 66.17 36.10 70.48
  Q 36.33 70.94 36.80 71.13
  Q 38.61 71.87 40.19 73.02
  Q 41.50 73.99 42.72 76.42
  Q 46.89 84.77 56.74 83.96
  C 58.59 83.81 61.12 82.85 63.54 83.43
  C 69.48 84.84 75.13 83.29 80.23 80.15
  Q 80.65 79.89 81.15 79.86
  Q 91.86 79.20 91.69 68.82
  C 91.65 66.57 88.44 62.06 93.24 61.62
  A 1.25 1.23 15.1 0 0 94.14 61.11
  Q 97.15 57.01 92.98 53.84
  Q 92.72 53.64 92.39 53.61
  L 85.97 53.07
  Q 85.44 53.02 85.04 52.68
  Q 81.86 49.94 77.91 48.54
  A 0.54 0.54 0.0 0 0 77.19 49.07
  L 77.27 51.21
  A 0.38 0.38 0.0 0 1 76.70 51.55
  Z"
/>
<path fill="#1e6fff" d="
  M 26.14 44.35
  L 28.09 45.63
  Q 28.40 45.83 28.23 46.17
  L 28.08 46.46
  Q 27.84 46.91 27.40 46.63
  L 21.09 42.54
  A 0.60 0.60 0.0 0 1 21.72 41.52
  L 24.01 42.88
  A 0.84 0.83 34.0 0 0 25.10 42.67
  L 26.66 40.61
  Q 27.15 39.94 26.43 39.55
  L 24.23 38.36
  A 0.50 0.50 0.0 0 1 23.97 37.80
  L 24.05 37.41
  A 0.48 0.48 0.0 0 1 24.77 37.11
  Q 27.95 39.07 31.02 41.20
  A 0.66 0.58 75.9 0 1 30.45 42.31
  L 28.39 40.89
  A 0.55 0.54 -55.3 0 0 27.64 41.03
  L 25.97 43.45
  Q 25.59 43.99 26.14 44.35
  Z"
/>
<path fill="#1e6fff" d="
  M 111.55 47.95
  L 109.80 44.85
  A 0.29 0.29 0.0 0 0 109.39 44.75
  L 107.09 46.16
  A 0.29 0.29 0.0 0 1 106.67 46.02
  L 106.36 45.16
  A 0.29 0.29 0.0 0 1 106.50 44.80
  L 113.53 41.28
  A 0.29 0.29 0.0 0 1 113.95 41.49
  L 114.08 42.24
  A 0.29 0.29 0.0 0 1 113.92 42.55
  L 111.01 43.90
  A 0.29 0.29 0.0 0 0 110.88 44.30
  L 112.52 47.55
  A 0.29 0.29 0.0 0 0 112.93 47.67
  L 115.72 46.00
  A 0.29 0.29 0.0 0 1 116.11 46.09
  L 116.57 46.82
  A 0.29 0.29 0.0 0 1 116.45 47.23
  L 109.39 50.78
  A 0.29 0.29 0.0 0 1 108.99 50.62
  L 108.73 49.94
  A 0.29 0.29 0.0 0 1 108.87 49.57
  L 111.42 48.35
  A 0.29 0.29 0.0 0 0 111.55 47.95
  Z"
/>
<path fill="#1e6fff" d="
  M 19.99 49.23
  Q 20.70 48.41 21.19 47.44
  A 0.74 0.74 0.0 0 0 21.02 46.57
  L 19.32 45.06
  A 0.32 0.32 0.0 0 1 19.35 44.56
  L 19.61 44.38
  Q 20.07 44.06 20.47 44.45
  L 25.72 49.51
  A 0.97 0.97 0.0 0 1 25.00 51.18
  L 17.84 50.82
  A 0.65 0.65 0.0 0 1 17.83 49.52
  L 19.66 49.40
  A 0.46 0.45 -71.1 0 0 19.99 49.23
  Z
  M 21.87 49.62
  L 23.48 50.13
  Q 23.97 50.29 23.86 49.79
  Q 23.51 48.19 22.26 47.99
  A 0.84 0.84 0.0 0 0 21.87 49.62
  Z"
/>
<path fill="#1e6fff" d="
  M 72.12 58.22
  C 74.72 62.50 69.82 65.01 67.38 67.40
  C 65.17 69.57 63.89 70.19 60.94 69.76
  C 57.60 69.26 56.61 65.75 57.08 62.82
  Q 57.16 62.33 56.72 62.10
  C 54.08 60.70 50.64 63.36 48.15 64.39
  Q 47.95 64.48 47.90 64.26
  L 47.84 64.00
  Q 47.79 63.80 47.98 63.71
  Q 50.82 62.44 52.66 59.94
  Q 52.99 59.50 53.51 59.65
  L 57.35 60.74
  A 0.64 0.63 -61.8 0 0 58.02 60.53
  C 58.80 59.61 59.31 58.58 60.10 57.86
  Q 64.24 54.05 70.53 56.45
  Q 72.29 57.12 73.34 55.13
  Q 73.60 54.64 74.14 54.72
  Q 77.95 55.28 80.37 58.20
  A 0.40 0.40 0.0 0 1 79.84 58.78
  Q 76.51 56.45 72.45 57.43
  A 0.53 0.53 0.0 0 0 72.12 58.22
  Z
  M 67.62 57.18
  Q 62.55 56.68 59.84 60.45
  C 56.54 65.04 62.34 70.20 65.38 66.87
  Q 67.91 64.10 69.62 62.60
  C 72.32 60.23 70.72 57.49 67.62 57.18
  Z"
/>
<path fill="#1e6fff" d="
  M 118.39 60.99
  L 120.40 61.47
  A 0.62 0.62 0.0 0 1 120.13 62.68
  L 112.50 61.12
  A 0.86 0.86 0.0 0 1 112.23 59.54
  L 118.95 55.55
  A 0.42 0.42 0.0 0 1 119.51 55.66
  L 119.71 55.92
  A 0.52 0.52 0.0 0 1 119.45 56.73
  Q 116.66 57.60 117.85 60.53
  Q 118.00 60.90 118.39 60.99
  Z
  M 114.54 60.48
  L 116.22 60.51
  A 0.82 0.82 0.0 0 0 116.31 58.88
  Q 114.92 58.76 114.19 59.77
  A 0.45 0.44 19.0 0 0 114.54 60.48
  Z"
/>
<path fill="#1e6fff" d="
  M 19.26 64.97
  L 22.05 65.21
  A 0.29 0.29 0.0 0 1 22.32 65.54
  L 22.21 66.40
  A 0.29 0.29 0.0 0 1 21.89 66.66
  L 14.24 65.74
  A 0.29 0.29 0.0 0 1 13.98 65.43
  L 14.05 64.62
  A 0.29 0.29 0.0 0 1 14.38 64.36
  L 17.69 64.80
  A 0.29 0.29 0.0 0 0 18.02 64.54
  L 18.30 61.13
  A 0.29 0.29 0.0 0 0 18.04 60.81
  L 14.64 60.38
  A 0.29 0.29 0.0 0 1 14.44 59.93
  L 14.89 59.28
  A 0.29 0.29 0.0 0 1 15.16 59.16
  L 22.50 59.97
  A 0.29 0.29 0.0 0 1 22.76 60.23
  L 22.84 60.97
  A 0.29 0.29 0.0 0 1 22.51 61.29
  L 19.90 60.88
  A 0.29 0.29 0.0 0 0 19.57 61.12
  L 19.00 64.63
  A 0.29 0.29 0.0 0 0 19.26 64.97
  Z"
/>
<path fill="#1e6fff" d="
  M 77.40 64.47
  L 77.20 64.01
  Q 77.02 63.61 77.46 63.53
  Q 79.83 63.12 82.13 63.63
  Q 83.01 63.83 82.17 64.15
  Q 81.67 64.34 81.09 64.31
  A 1.18 1.11 -60.9 0 0 80.34 64.55
  Q 75.02 68.66 70.66 75.41
  C 67.81 79.83 63.81 75.14 60.77 74.50
  Q 55.13 73.33 49.00 72.82
  A 0.50 0.50 0.0 0 1 49.01 71.82
  Q 51.50 71.66 53.41 70.09
  A 0.66 0.65 49.8 0 1 54.32 70.17
  C 57.82 74.14 61.18 71.87 65.34 71.56
  Q 67.16 71.43 68.56 70.87
  C 72.15 69.45 74.99 68.91 77.32 65.35
  Q 77.60 64.93 77.40 64.47
  Z
  M 69.57 72.80
  L 64.93 73.43
  A 0.38 0.38 0.0 0 0 64.75 74.10
  L 66.29 75.30
  A 1.23 1.22 38.1 0 0 68.00 75.10
  L 69.68 72.99
  Q 69.86 72.77 69.57 72.80
  Z"
/>
<path fill="#1e6fff" d="
  M 115.23 69.36
  L 120.49 70.77
  A 0.71 0.71 0.0 0 1 120.49 72.15
  L 113.01 74.14
  Q 112.46 74.29 112.54 73.73
  L 112.61 73.14
  A 0.60 0.59 -1.4 0 1 113.09 72.64
  L 117.22 71.87
  A 0.53 0.53 0.0 0 0 117.25 70.83
  L 113.25 69.84
  A 0.92 0.92 0.0 0 1 113.25 68.05
  L 117.41 67.00
  A 0.42 0.42 0.0 0 0 117.41 66.19
  L 113.08 65.14
  A 0.48 0.48 0.0 0 1 112.71 64.67
  L 112.70 64.07
  A 0.40 0.40 0.0 0 1 113.21 63.68
  L 120.53 65.93
  A 0.64 0.63 -44.1 0 1 120.51 67.15
  L 115.23 68.61
  Q 113.87 68.99 115.23 69.36
  Z"
/>
<path fill="#1e6fff" d="
  M 16.42 72.27
  Q 17.33 69.15 14.52 68.86
  A 0.77 0.77 0.0 0 1 13.83 68.18
  L 13.78 67.76
  A 0.37 0.37 0.0 0 1 14.27 67.37
  L 22.09 70.12
  A 0.75 0.75 0.0 0 1 22.13 71.52
  L 14.55 74.62
  A 0.46 0.46 0.0 0 1 13.98 73.97
  Q 14.55 72.97 15.73 72.85
  Q 16.27 72.79 16.42 72.27
  Z
  M 19.95 71.01
  Q 20.13 70.86 20.01 70.66
  Q 19.28 69.53 18.00 69.93
  A 1.08 0.89 -56.9 0 0 18.22 71.89
  Q 19.23 71.57 19.95 71.01
  Z"
/>
<path fill="#1e6fff" d="
  M 83.86 93.56
  C 83.00 94.81 82.88 96.85 80.50 96.26
  Q 79.28 95.96 75.44 94.28
  A 1.07 1.06 3.9 0 1 74.86 93.62
  C 74.01 90.84 73.67 86.99 76.73 85.47
  Q 83.30 82.21 89.39 84.66
  A 1.82 1.82 0.0 0 1 89.69 87.89
  Q 86.29 90.04 83.86 93.56
  Z"
/>
<path fill="#1e6fff" d="
  M 65.68 87.90
  Q 65.67 86.98 66.59 86.95
  L 70.67 86.85
  Q 71.81 86.82 72.14 87.92
  Q 72.88 90.32 72.22 92.74
  A 0.83 0.82 11.4 0 1 71.32 93.33
  L 66.26 92.64
  Q 65.73 92.57 65.72 92.03
  L 65.68 87.90
  Z"
/>
<path fill="#1e6fff" d="
  M 51.93 90.24
  C 54.43 88.19 58.38 87.31 61.56 87.51
  A 0.62 0.62 0.0 0 1 62.13 88.01
  L 62.80 91.63
  A 0.80 0.80 0.0 0 1 62.49 92.43
  L 54.01 98.79
  A 0.35 0.35 0.0 0 1 53.45 98.51
  Q 53.51 94.52 51.78 90.97
  Q 51.57 90.54 51.93 90.24
  Z"
/>
<circle fill="#1e6fff" cx="24.91" cy="93.20" r="4.10"/>
<circle fill="#1e6fff" cx="110.22" cy="93.19" r="4.09"/>
<path fill="#1e6fff" d="
  M 39.43 111.05
  Q 39.39 111.17 39.49 111.23
  L 39.71 111.36
  Q 39.75 111.39 39.79 111.36
  L 44.07 107.30
  A 0.74 0.74 0.0 0 1 45.28 108.05
  L 43.67 113.31
  A 0.30 0.30 0.0 0 0 44.17 113.60
  L 47.72 109.83
  A 0.67 0.66 -59.3 0 1 48.41 109.65
  L 48.93 109.83
  A 0.31 0.31 0.0 0 1 49.05 110.34
  L 43.28 116.07
  A 0.75 0.75 0.0 0 1 42.04 115.33
  L 43.60 109.92
  A 0.26 0.26 0.0 0 0 43.17 109.66
  L 39.18 113.47
  A 0.80 0.80 0.0 0 1 37.85 112.67
  L 39.92 105.55
  A 0.47 0.46 9.7 0 1 40.41 105.21
  L 41.02 105.25
  A 0.43 0.43 0.0 0 1 41.39 105.83
  L 39.43 111.05
  Z"
/>
<path fill="#1e6fff" d="
  M 95.84 111.01
  Q 93.09 112.00 94.20 114.46
  Q 94.41 114.93 93.94 115.11
  Q 93.25 115.39 93.08 114.63
  Q 92.31 111.15 91.42 107.36
  A 0.90 0.89 11.8 0 1 92.83 106.44
  L 98.96 111.04
  A 0.59 0.59 0.0 0 1 98.31 112.03
  L 96.69 111.08
  Q 96.28 110.85 95.84 111.01
  Z
  M 95.15 109.47
  L 93.22 108.21
  Q 92.54 107.76 92.74 108.56
  L 93.19 110.41
  A 0.57 0.57 0.0 0 0 93.97 110.80
  L 95.07 110.34
  A 0.50 0.50 0.0 0 0 95.15 109.47
  Z"
/>
<path fill="#1e6fff" d="
  M 84.66 113.33
  Q 85.01 113.98 85.67 113.64
  L 87.76 112.56
  Q 88.64 112.11 88.18 111.24
  L 87.27 109.51
  A 0.45 0.44 73.5 0 1 87.62 108.86
  L 87.95 108.83
  Q 88.45 108.78 88.65 109.24
  L 91.65 115.93
  Q 91.84 116.36 91.38 116.47
  L 90.95 116.58
  A 0.50 0.48 -18.2 0 1 90.38 116.30
  L 89.37 113.94
  Q 89.04 113.17 88.31 113.57
  L 86.09 114.77
  Q 85.32 115.19 85.76 115.95
  L 86.90 117.91
  A 0.45 0.45 0.0 0 1 86.68 118.56
  L 86.37 118.69
  Q 85.70 118.96 85.41 118.30
  L 82.52 111.77
  A 0.58 0.58 0.0 0 1 83.56 111.26
  L 84.66 113.33
  Z"
/>
<path fill="#1e6fff" d="
  M 51.51 117.07
  L 49.23 116.15
  A 0.55 0.55 0.0 0 0 48.51 116.47
  Q 48.04 117.71 46.82 118.12
  A 0.49 0.49 0.0 0 1 46.29 117.34
  L 51.60 111.17
  A 0.80 0.80 0.0 0 1 53.01 111.69
  L 53.04 119.49
  A 0.39 0.39 0.0 0 1 52.48 119.85
  Q 51.30 119.30 51.82 117.74
  Q 51.98 117.26 51.51 117.07
  Z
  M 50.61 115.74
  Q 52.73 115.71 52.10 113.37
  Q 51.99 112.94 51.63 113.20
  L 50.12 114.29
  A 0.80 0.80 0.0 0 0 50.61 115.74
  Z"
/>
<path fill="#1e6fff" d="
  M 75.17 119.60
  A 1.83 1.83 0.0 0 0 71.61 120.41
  Q 71.79 121.79 70.49 122.17
  A 0.43 0.42 -0.4 0 1 69.96 121.65
  L 72.18 113.59
  A 0.64 0.63 -51.2 0 1 73.35 113.46
  L 77.20 120.74
  A 0.47 0.47 0.0 0 1 76.55 121.37
  Q 75.57 120.83 75.17 119.60
  Z
  M 72.15 117.76
  A 0.41 0.41 0.0 0 0 72.52 118.27
  L 73.59 118.35
  Q 74.01 118.39 74.04 117.97
  Q 74.15 116.63 73.20 115.76
  Q 72.74 115.33 72.60 115.94
  L 72.15 117.76
  Z"
/>
<path fill="#1e6fff" d="
  M 62.86 118.53
  L 63.00 121.48
  A 0.28 0.28 0.0 0 1 62.71 121.77
  L 61.84 121.76
  A 0.28 0.28 0.0 0 1 61.57 121.46
  L 62.08 113.99
  A 0.28 0.28 0.0 0 1 62.26 113.75
  L 62.99 113.46
  A 0.28 0.28 0.0 0 1 63.37 113.77
  L 62.93 116.68
  A 0.28 0.28 0.0 0 0 63.19 117.00
  L 66.82 117.20
  A 0.28 0.28 0.0 0 0 67.12 116.93
  L 67.21 114.02
  A 0.28 0.28 0.0 0 1 67.53 113.75
  L 68.48 113.88
  A 0.28 0.28 0.0 0 1 68.72 114.18
  L 68.25 121.75
  A 0.28 0.28 0.0 0 1 67.98 122.01
  L 67.26 122.05
  A 0.28 0.28 0.0 0 1 66.97 121.76
  L 67.03 118.57
  A 0.28 0.28 0.0 0 0 66.76 118.29
  L 63.15 118.23
  A 0.28 0.28 0.0 0 0 62.86 118.53
  Z"
/>
</svg>
