<?xml version="1.0" encoding="UTF-8" standalone="no"?>
<!DOCTYPE svg PUBLIC "-//W3C//DTD SVG 1.1//EN" "http://www.w3.org/Graphics/SVG/1.1/DTD/svg11.dtd">
<svg xmlns="http://www.w3.org/2000/svg" version="1.1" viewBox="0.00 0.00 135.00 135.00">
<path fill="#ffffff" d="
  M 128.07 68.56
  A 60.51 60.51 0.0 0 1 67.56 129.07
  A 60.51 60.51 0.0 0 1 7.05 68.56
  A 60.51 60.51 0.0 0 1 67.56 8.05
  A 60.51 60.51 0.0 0 1 128.07 68.56
  Z
  M 124.97 68.57
  A 57.41 57.41 0.0 0 0 67.56 11.16
  A 57.41 57.41 0.0 0 0 10.15 68.57
  A 57.41 57.41 0.0 0 0 67.56 125.98
  A 57.41 57.41 0.0 0 0 124.97 68.57
  Z"
/>
<circle fill="#ffffff" cx="67.57" cy="19.33" r="4.10"/>
<path fill="#ffffff" d="
  M 90.10 22.39
  Q 92.10 25.14 93.77 22.55
  A 0.79 0.79 0.0 0 1 94.79 22.27
  Q 95.21 22.49 95.22 22.85
  Q 95.22 23.10 94.90 23.36
  Q 92.15 25.62 89.34 28.33
  A 0.96 0.96 0.0 0 1 87.72 27.51
  L 88.74 19.95
  Q 88.79 19.55 89.18 19.64
  L 89.71 19.77
  Q 90.06 19.85 90.02 20.21
  L 89.88 21.57
  Q 89.84 22.03 90.10 22.39
  Z
  M 89.25 24.91
  C 89.17 25.32 88.93 25.79 88.89 26.19
  Q 88.83 26.88 89.43 26.53
  Q 90.38 25.99 91.18 25.15
  A 0.99 0.85 -2.1 0 0 89.74 24.00
  Q 89.38 24.29 89.25 24.91
  Z"
/>
<path fill="#ffffff" d="
  M 44.47 27.08
  L 42.83 21.85
  A 0.84 0.84 0.0 0 1 44.24 21.02
  L 49.67 26.62
  A 0.38 0.38 0.0 0 1 49.63 27.18
  L 49.35 27.40
  Q 48.99 27.68 48.67 27.34
  L 45.06 23.51
  A 0.33 0.32 -74.3 0 0 44.51 23.82
  L 45.85 28.71
  A 0.79 0.79 0.0 0 1 44.52 29.48
  L 40.76 25.70
  A 0.32 0.31 12.6 0 0 40.24 26.03
  L 41.95 30.71
  Q 42.17 31.34 41.55 31.56
  L 41.21 31.67
  Q 40.60 31.89 40.44 31.25
  L 38.73 24.45
  A 0.87 0.87 0.0 0 1 40.19 23.62
  L 43.97 27.38
  A 0.30 0.30 0.0 0 0 44.47 27.08
  Z"
/>
<path fill="#ffffff" d="
  M 98.07 29.28
  A 1.18 1.18 0.0 0 0 99.88 28.70
  Q 100.25 27.60 101.22 27.10
  A 0.57 0.57 0.0 0 1 101.94 27.95
  L 97.57 33.76
  Q 97.30 34.11 96.87 34.01
  L 96.54 33.94
  Q 95.98 33.81 96.33 33.35
  L 97.89 31.36
  A 0.67 0.66 37.5 0 0 97.76 30.42
  L 95.49 28.71
  Q 94.79 28.18 94.35 28.94
  L 93.35 30.65
  A 0.58 0.58 0.0 0 1 92.47 30.80
  L 92.21 30.60
  A 0.47 0.46 -51.6 0 1 92.14 29.97
  L 96.56 24.13
  A 0.41 0.38 -68.6 0 1 96.89 23.97
  L 97.48 24.00
  Q 98.12 24.02 97.75 24.54
  L 96.04 26.91
  A 0.74 0.73 35.8 0 0 96.21 27.93
  L 98.07 29.28
  Z"
/>
<path fill="#ffffff" d="
  M 35.36 28.22
  L 34.90 26.54
  A 0.64 0.64 0.0 0 1 36.13 26.16
  L 38.68 33.47
  A 0.84 0.84 0.0 0 1 37.47 34.48
  L 30.57 30.54
  Q 30.26 30.37 30.41 30.05
  L 30.57 29.74
  A 0.59 0.58 -55.3 0 1 31.49 29.57
  Q 33.75 31.68 35.27 28.97
  Q 35.47 28.61 35.36 28.22
  Z
  M 37.31 32.48
  L 36.43 30.50
  A 0.75 0.75 0.0 0 0 35.18 30.31
  L 34.81 30.73
  A 0.67 0.67 0.0 0 0 34.97 31.75
  L 36.89 32.86
  A 0.30 0.30 0.0 0 0 37.31 32.48
  Z"
/>
<path fill="#ffffff" d="
  M 109.42 68.57
  A 41.85 41.85 0.0 0 1 67.57 110.42
  A 41.85 41.85 0.0 0 1 25.72 68.57
  A 41.85 41.85 0.0 0 1 67.57 26.72
  A 41.85 41.85 0.0 0 1 109.42 68.57
  Z
  M 106.26 68.57
  A 38.69 38.69 0.0 0 0 67.57 29.88
  A 38.69 38.69 0.0 0 0 28.88 68.57
  A 38.69 38.69 0.0 0 0 67.57 107.26
  A 38.69 38.69 0.0 0 0 106.26 68.57
  Z"
/>
<path fill="#ffffff" d="
  M 107.94 37.27
  Q 109.17 40.15 111.74 38.71
  Q 112.22 38.44 112.37 38.96
  L 112.48 39.32
  Q 112.57 39.62 112.27 39.72
  L 104.86 42.04
  A 0.98 0.98 0.0 0 1 103.75 40.56
  L 107.89 34.27
  A 0.50 0.49 -57.1 0 1 108.57 34.12
  L 108.85 34.29
  A 0.58 0.58 0.0 0 1 109.00 35.15
  L 108.08 36.26
  Q 107.70 36.72 107.94 37.27
  Z
  M 106.84 40.29
  Q 107.43 40.21 107.74 39.97
  A 1.07 0.85 -75.2 0 0 106.97 38.20
  Q 105.92 38.96 105.50 40.16
  Q 105.37 40.55 105.78 40.53
  Q 105.99 40.53 106.19 40.46
  Q 106.64 40.32 106.84 40.29
  Z"
/>
<path fill="#ffffff" d="
  M 84.54 48.46
  Q 86.11 48.95 86.67 50.47
  Q 86.87 51.02 87.45 50.93
  C 92.07 50.25 98.33 52.73 97.33 58.38
  Q 96.64 62.34 93.52 65.00
  Q 93.13 65.33 93.24 65.84
  Q 93.98 69.30 93.37 72.69
  C 92.89 75.34 91.30 76.58 89.69 78.67
  C 88.03 80.81 84.91 81.30 82.42 81.74
  Q 80.26 82.11 78.28 83.15
  Q 70.48 87.22 61.51 85.08
  Q 61.03 84.97 60.55 85.11
  Q 46.59 89.19 40.71 76.47
  Q 40.49 76.00 40.00 75.83
  Q 32.50 73.12 33.13 65.44
  C 33.49 60.96 36.42 59.14 40.68 60.03
  Q 41.20 60.14 41.58 59.76
  L 46.18 55.22
  Q 46.56 54.84 46.64 54.31
  Q 47.56 48.31 52.77 45.30
  A 1.66 1.65 -1.4 0 0 53.40 44.64
  Q 54.71 42.13 57.07 40.57
  Q 57.56 40.25 57.33 39.72
  C 55.66 35.87 61.34 34.13 64.15 36.26
  Q 64.54 36.56 65.02 36.50
  Q 74.10 35.49 78.85 42.99
  Q 79.13 43.43 79.65 43.44
  Q 83.70 43.45 86.59 46.22
  A 0.56 0.56 0.0 0 1 86.30 47.17
  L 84.60 47.49
  A 0.50 0.50 0.0 0 0 84.54 48.46
  Z
  M 59.01 39.12
  A 1.05 1.05 0.0 0 0 60.81 39.83
  L 62.59 37.99
  A 0.66 0.66 0.0 0 0 62.13 36.87
  L 59.69 36.83
  Q 58.94 36.81 58.96 37.56
  L 59.01 39.12
  Z
  M 63.81 40.54
  C 66.38 42.36 67.72 43.93 68.82 47.39
  A 0.73 0.73 0.0 0 0 69.72 47.87
  L 74.25 46.58
  Q 74.75 46.44 74.92 45.95
  C 76.94 39.98 70.47 39.01 66.54 38.11
  Q 64.61 37.67 63.63 38.74
  A 1.21 1.20 -50.9 0 0 63.81 40.54
  Z
  M 66.2273 46.9700
  A 3.57 1.09 51.4 0 0 64.8519 43.5000
  A 3.57 1.09 51.4 0 0 61.7727 41.3900
  A 3.57 1.09 51.4 0 0 63.1481 44.8600
  A 3.57 1.09 51.4 0 0 66.2273 46.9700
  Z
  M 58.92 43.94
  L 58.89 44.93
  Q 58.87 45.75 59.68 45.65
  L 60.80 45.52
  A 0.60 0.59 -17.3 0 0 61.26 44.65
  L 59.64 41.63
  A 0.80 0.73 -75.4 0 0 58.36 42.46
  Q 58.48 42.70 58.69 43.05
  Q 58.93 43.47 58.92 43.94
  Z
  M 56.44 43.02
  L 54.91 44.85
  A 0.41 0.41 0.0 0 0 54.96 45.43
  L 55.05 45.50
  A 1.58 1.49 39.9 0 0 57.21 45.37
  L 57.36 45.20
  A 1.58 1.49 39.9 0 0 57.10 43.04
  L 57.02 42.97
  A 0.41 0.41 0.0 0 0 56.44 43.02
  Z
  M 63.26 47.57
  C 58.16 46.23 50.72 46.73 49.20 52.96
  Q 48.81 54.53 49.90 55.84
  C 51.22 57.44 53.78 56.81 55.30 55.75
  C 57.60 54.14 63.70 52.43 64.53 49.90
  A 1.82 1.82 0.0 0 0 63.26 47.57
  Z
  M 76.66 51.47
  L 74.14 50.20
  A 0.56 0.55 -67.6 0 0 73.36 50.53
  L 72.72 52.50
  A 0.46 0.46 0.0 0 1 72.01 52.73
  C 70.14 51.33 68.34 50.88 66.14 52.12
  Q 57.43 57.05 55.01 58.26
  Q 50.70 60.42 46.99 57.42
  Q 46.63 57.13 46.28 57.42
  L 41.72 61.23
  Q 41.31 61.57 40.77 61.52
  C 34.68 60.95 33.98 66.16 36.09 70.47
  A 1.32 1.30 88.0 0 0 36.78 71.12
  C 39.56 72.26 41.36 73.40 42.68 76.40
  C 45.90 83.75 53.81 85.20 61.07 83.15
  A 1.58 1.51 -43.7 0 1 61.88 83.15
  Q 71.45 85.76 79.85 80.27
  A 1.73 1.65 25.8 0 1 80.72 79.99
  C 86.82 79.70 92.31 76.04 91.73 69.33
  C 91.59 67.78 90.38 65.30 90.71 63.08
  A 1.11 1.11 0.0 0 1 91.44 62.20
  L 93.79 61.36
  A 1.26 1.24 -82.8 0 0 94.41 60.87
  Q 96.44 57.64 94.37 55.13
  C 92.52 52.88 88.78 53.27 86.00 53.08
  Q 85.53 53.05 85.17 52.74
  Q 82.06 50.11 78.26 48.63
  A 0.82 0.82 0.0 0 0 77.14 49.46
  L 77.28 51.06
  A 0.43 0.42 11.4 0 1 76.66 51.47
  Z"
/>
<path fill="#ffffff" d="
  M 26.23 44.42
  L 28.09 45.63
  A 0.44 0.44 0.0 0 1 28.23 46.23
  L 28.06 46.52
  A 0.43 0.42 31.2 0 1 27.46 46.66
  L 21.10 42.53
  A 0.59 0.59 0.0 0 1 21.72 41.52
  L 24.00 42.88
  Q 24.65 43.26 25.10 42.66
  L 26.72 40.54
  Q 27.17 39.95 26.51 39.59
  L 24.22 38.37
  A 0.52 0.52 0.0 0 1 23.97 37.80
  L 24.06 37.38
  A 0.47 0.47 0.0 0 1 24.78 37.09
  L 31.02 41.15
  A 0.62 0.61 74.4 0 1 30.42 42.22
  Q 29.34 41.69 28.48 40.88
  A 0.53 0.53 0.0 0 0 27.67 40.97
  L 26.02 43.37
  Q 25.59 44.00 26.23 44.42
  Z"
/>
<path fill="#ffffff" d="
  M 111.55 47.95
  L 109.83 44.83
  A 0.29 0.29 0.0 0 0 109.42 44.72
  L 107.08 46.14
  A 0.29 0.29 0.0 0 1 106.65 45.98
  L 106.37 45.16
  A 0.29 0.29 0.0 0 1 106.52 44.81
  L 113.45 41.33
  A 0.29 0.29 0.0 0 1 113.85 41.49
  L 114.10 42.17
  A 0.29 0.29 0.0 0 1 113.95 42.53
  L 110.95 43.95
  A 0.29 0.29 0.0 0 0 110.82 44.35
  L 112.57 47.50
  A 0.29 0.29 0.0 0 0 112.97 47.61
  L 115.68 46.04
  A 0.29 0.29 0.0 0 1 116.05 46.11
  L 116.56 46.78
  A 0.29 0.29 0.0 0 1 116.46 47.22
  L 109.37 50.76
  A 0.29 0.29 0.0 0 1 108.96 50.60
  L 108.73 49.92
  A 0.29 0.29 0.0 0 1 108.88 49.57
  L 111.42 48.35
  A 0.29 0.29 0.0 0 0 111.55 47.95
  Z"
/>
<path fill="#ffffff" d="
  M 19.94 49.35
  L 21.23 47.44
  A 0.64 0.63 37.2 0 0 21.11 46.60
  L 19.36 45.15
  Q 19.06 44.90 19.35 44.63
  L 19.69 44.31
  A 0.48 0.47 45.4 0 1 20.35 44.32
  L 25.71 49.52
  A 0.96 0.96 0.0 0 1 24.99 51.17
  L 17.75 50.82
  A 0.62 0.62 0.0 0 1 17.36 49.75
  Q 18.10 49.09 19.00 49.58
  A 0.72 0.71 -58.3 0 0 19.94 49.35
  Z
  M 21.85 49.64
  L 23.44 50.09
  Q 23.95 50.24 23.82 49.73
  Q 23.37 47.96 22.04 48.01
  A 0.83 0.83 0.0 0 0 21.85 49.64
  Z"
/>
<path fill="#ffffff" d="
  M 72.15 58.29
  C 74.66 62.46 69.98 64.86 67.62 67.17
  Q 65.45 69.28 63.91 69.66
  C 59.06 70.85 56.37 67.40 57.08 62.83
  A 0.77 0.76 -72.1 0 0 56.68 62.04
  C 54.08 60.69 50.90 63.32 48.10 64.35
  Q 47.93 64.42 47.91 64.24
  L 47.87 63.90
  Q 47.85 63.74 48.01 63.67
  Q 50.87 62.47 52.66 59.94
  Q 52.97 59.50 53.49 59.65
  L 57.28 60.72
  Q 57.77 60.86 58.08 60.47
  C 61.66 55.87 64.22 53.97 70.50 56.44
  Q 72.35 57.17 73.34 55.10
  A 0.64 0.62 -73.2 0 1 73.99 54.74
  Q 77.85 55.18 80.31 58.16
  A 0.38 0.38 0.0 0 1 79.80 58.72
  Q 76.50 56.51 72.53 57.38
  A 0.61 0.61 0.0 0 0 72.15 58.29
  Z
  M 67.62 57.20
  Q 62.69 56.69 59.98 60.25
  C 57.70 63.23 58.72 66.95 62.53 67.78
  A 2.66 2.66 0.0 0 0 64.96 67.09
  L 70.76 61.46
  A 0.75 0.75 0.0 0 0 70.99 60.97
  Q 71.26 57.58 67.62 57.20
  Z"
/>
<path fill="#ffffff" d="
  M 118.50 61.09
  L 120.22 61.30
  Q 120.75 61.37 120.66 61.90
  L 120.59 62.28
  A 0.48 0.47 -79.5 0 1 120.03 62.67
  L 112.50 61.11
  A 0.85 0.85 0.0 0 1 112.24 59.55
  L 118.94 55.56
  A 0.43 0.42 55.9 0 1 119.49 55.67
  L 119.65 55.87
  A 0.61 0.61 0.0 0 1 119.35 56.82
  Q 116.56 57.70 117.90 60.65
  Q 118.08 61.03 118.50 61.09
  Z
  M 114.21 59.83
  A 0.42 0.42 0.0 0 0 114.55 60.47
  L 116.26 60.52
  A 0.79 0.79 0.0 0 0 116.49 58.97
  Q 114.99 58.57 114.21 59.83
  Z"
/>
<path fill="#ffffff" d="
  M 19.24 64.98
  L 21.99 65.20
  A 0.28 0.28 0.0 0 1 22.25 65.48
  L 22.24 66.37
  A 0.28 0.28 0.0 0 1 21.93 66.64
  L 14.29 65.74
  A 0.28 0.28 0.0 0 1 14.04 65.46
  L 14.03 64.66
  A 0.28 0.28 0.0 0 1 14.35 64.38
  L 17.70 64.81
  A 0.28 0.28 0.0 0 0 18.02 64.56
  L 18.32 61.14
  A 0.28 0.28 0.0 0 0 18.07 60.83
  L 14.77 60.40
  A 0.28 0.28 0.0 0 1 14.55 60.02
  L 14.80 59.34
  A 0.28 0.28 0.0 0 1 15.09 59.15
  L 22.51 59.98
  A 0.28 0.28 0.0 0 1 22.76 60.26
  L 22.74 61.04
  A 0.28 0.28 0.0 0 1 22.42 61.31
  L 19.90 60.86
  A 0.28 0.28 0.0 0 0 19.57 61.09
  L 18.99 64.66
  A 0.28 0.28 0.0 0 0 19.24 64.98
  Z"
/>
<path fill="#ffffff" d="
  M 77.46 64.66
  L 77.17 63.97
  Q 76.95 63.42 77.54 63.42
  L 81.95 63.47
  A 0.36 0.36 0.0 0 1 82.02 64.19
  C 78.13 64.98 73.40 71.13 71.31 74.32
  C 67.36 80.34 64.89 75.37 60.56 74.46
  Q 54.98 73.30 49.00 72.83
  A 0.50 0.50 0.0 0 1 49.00 71.84
  Q 51.50 71.64 53.45 70.11
  Q 53.89 69.76 54.28 70.18
  C 57.46 73.64 60.11 72.29 64.00 71.80
  Q 68.62 71.22 72.65 69.37
  Q 75.37 68.11 77.35 65.49
  Q 77.64 65.10 77.46 64.66
  Z
  M 69.04 73.86
  Q 69.61 73.00 68.58 73.08
  L 64.97 73.33
  A 0.39 0.39 0.0 0 0 64.70 73.97
  Q 67.08 76.84 69.04 73.86
  Z"
/>
<path fill="#ffffff" d="
  M 115.11 69.32
  L 120.49 70.77
  A 0.71 0.71 0.0 0 1 120.49 72.14
  L 113.01 74.14
  Q 112.46 74.29 112.55 73.73
  L 112.65 73.12
  A 0.59 0.58 -89.9 0 1 113.12 72.64
  L 117.40 71.83
  A 0.49 0.49 0.0 0 0 117.43 70.88
  L 113.06 69.77
  A 0.86 0.85 44.7 0 1 113.05 68.11
  L 117.51 66.97
  A 0.40 0.40 0.0 0 0 117.50 66.20
  L 113.29 65.22
  A 0.76 0.76 0.0 0 1 112.70 64.41
  L 112.73 64.07
  Q 112.78 63.57 113.26 63.71
  L 120.54 65.93
  A 0.63 0.63 0.0 0 1 120.52 67.14
  L 115.11 68.66
  Q 113.90 68.99 115.11 69.32
  Z"
/>
<path fill="#ffffff" d="
  M 15.82 69.27
  L 13.86 68.47
  A 0.58 0.58 0.0 0 1 14.27 67.38
  L 22.09 70.11
  A 0.75 0.75 0.0 0 1 22.13 71.51
  L 14.52 74.63
  A 0.38 0.38 0.0 0 1 14.00 74.22
  L 14.09 73.69
  A 0.59 0.59 0.0 0 1 14.59 73.20
  Q 17.41 72.84 16.37 69.86
  Q 16.23 69.44 15.82 69.27
  Z
  M 20.09 71.06
  Q 20.83 70.72 20.07 70.45
  L 18.22 69.80
  A 0.57 0.57 0.0 0 0 17.46 70.37
  L 17.53 71.47
  Q 17.57 72.19 18.23 71.89
  L 20.09 71.06
  Z"
/>
<path fill="#ffffff" d="
  M 83.02 95.38
  C 82.01 97.57 77.19 95.02 75.58 94.35
  Q 75.12 94.15 74.93 93.69
  C 70.97 83.82 83.51 82.40 89.34 84.63
  A 1.85 1.85 0.0 0 1 89.66 87.92
  C 86.66 89.80 84.55 92.08 83.02 95.38
  Z"
/>
<path fill="#ffffff" d="
  M 72.42 88.80
  L 72.54 91.64
  A 1.67 1.66 3.8 0 1 70.58 93.35
  L 66.44 92.62
  Q 65.78 92.50 65.76 91.82
  L 65.63 87.57
  Q 65.61 87.01 66.17 86.99
  L 70.30 86.84
  Q 72.34 86.76 72.42 88.80
  Z"
/>
<path fill="#ffffff" d="
  M 52.40 89.90
  Q 56.54 87.27 61.51 87.49
  Q 62.02 87.51 62.12 88.01
  L 62.80 91.63
  A 0.82 0.81 -24.3 0 1 62.49 92.44
  L 54.12 98.68
  A 0.41 0.41 0.0 0 1 53.46 98.35
  Q 53.45 94.66 51.97 91.28
  Q 51.59 90.41 52.40 89.90
  Z"
/>
<circle fill="#ffffff" cx="24.91" cy="93.20" r="4.09"/>
<circle fill="#ffffff" cx="110.22" cy="93.20" r="4.09"/>
<path fill="#ffffff" d="
  M 40.09 111.16
  L 43.41 107.83
  A 1.01 1.01 0.0 0 1 45.09 108.86
  L 43.63 113.29
  A 0.32 0.31 76.1 0 0 44.15 113.61
  L 47.76 109.79
  A 0.63 0.63 0.0 0 1 48.51 109.67
  L 48.83 109.85
  A 0.38 0.38 0.0 0 1 48.92 110.46
  L 43.40 115.95
  A 0.81 0.80 -14.1 0 1 42.06 115.15
  L 43.62 109.93
  A 0.29 0.28 76.6 0 0 43.15 109.64
  L 39.19 113.48
  A 0.81 0.81 0.0 0 1 37.85 112.68
  L 39.93 105.51
  A 0.45 0.44 -75.0 0 1 40.46 105.20
  L 41.13 105.34
  A 0.35 0.35 0.0 0 1 41.38 105.80
  L 39.55 110.81
  A 0.33 0.33 0.0 0 0 40.09 111.16
  Z"
/>
<path fill="#ffffff" d="
  M 95.84 111.00
  Q 93.06 112.04 94.16 114.56
  Q 94.38 115.06 93.85 115.18
  Q 93.62 115.22 93.42 115.09
  Q 93.25 114.99 93.18 114.72
  Q 92.17 110.99 91.45 107.25
  A 0.84 0.84 0.0 0 1 92.78 106.42
  L 98.87 110.99
  A 0.55 0.54 -48.4 0 1 98.91 111.82
  L 98.66 112.05
  A 0.25 0.25 0.0 0 1 98.36 112.08
  L 96.69 111.08
  Q 96.28 110.83 95.84 111.00
  Z
  M 94.16 108.76
  A 0.73 0.73 0.0 0 0 92.98 109.36
  Q 93.09 111.54 94.99 110.40
  A 0.57 0.57 0.0 0 0 95.05 109.47
  L 94.16 108.76
  Z"
/>
<path fill="#ffffff" d="
  M 89.41 114.00
  Q 89.04 113.15 88.22 113.60
  L 86.18 114.72
  Q 85.28 115.21 85.81 116.09
  L 86.83 117.77
  A 0.53 0.53 0.0 0 1 86.59 118.53
  L 86.31 118.65
  A 0.68 0.68 0.0 0 1 85.42 118.30
  L 82.52 111.78
  A 0.58 0.57 -71.2 0 1 83.55 111.27
  L 84.66 113.33
  Q 85.01 113.99 85.67 113.64
  L 87.98 112.45
  Q 88.87 111.98 88.19 111.24
  Q 87.45 110.44 87.40 109.53
  A 0.65 0.65 0.0 0 1 88.64 109.23
  L 91.72 116.10
  Q 91.82 116.32 91.58 116.40
  L 90.92 116.61
  A 0.41 0.40 -19.6 0 1 90.42 116.38
  L 89.41 114.00
  Z"
/>
<path fill="#ffffff" d="
  M 51.96 118.26
  A 2.18 1.69 -16.4 0 0 48.36 116.85
  L 47.16 118.13
  A 0.58 0.58 0.0 0 1 46.29 117.36
  L 51.60 111.18
  A 0.80 0.79 -24.9 0 1 53.00 111.69
  L 53.03 119.43
  Q 53.03 119.81 52.65 119.79
  Q 51.20 119.72 51.96 118.26
  Z
  M 50.62 115.75
  Q 52.67 115.66 52.14 113.40
  Q 52.03 112.94 51.65 113.21
  L 50.12 114.28
  A 0.81 0.81 0.0 0 0 50.62 115.75
  Z"
/>
<path fill="#ffffff" d="
  M 62.87 118.53
  L 63.00 121.49
  A 0.28 0.28 0.0 0 1 62.70 121.78
  L 61.84 121.72
  A 0.28 0.28 0.0 0 1 61.58 121.42
  L 62.07 113.93
  A 0.28 0.28 0.0 0 1 62.32 113.67
  L 63.04 113.60
  A 0.28 0.28 0.0 0 1 63.35 113.92
  L 62.93 116.69
  A 0.28 0.28 0.0 0 0 63.19 117.02
  L 66.87 117.21
  A 0.28 0.28 0.0 0 0 67.17 116.93
  L 67.24 114.10
  A 0.28 0.28 0.0 0 1 67.53 113.83
  L 68.45 113.85
  A 0.28 0.28 0.0 0 1 68.72 114.15
  L 68.25 121.75
  A 0.28 0.28 0.0 0 1 67.98 122.01
  L 67.27 122.03
  A 0.28 0.28 0.0 0 1 66.98 121.74
  L 67.04 118.56
  A 0.28 0.28 0.0 0 0 66.77 118.28
  L 63.16 118.23
  A 0.28 0.28 0.0 0 0 62.87 118.53
  Z"
/>
<path fill="#ffffff" d="
  M 73.89 119.17
  Q 71.67 119.46 71.33 121.51
  Q 71.23 122.11 70.63 122.10
  L 70.25 122.10
  A 0.30 0.29 7.4 0 1 69.96 121.73
  L 72.05 114.01
  A 0.83 0.83 0.0 0 1 73.59 113.84
  L 77.28 120.95
  A 0.45 0.45 0.0 0 1 76.54 121.46
  L 74.81 119.52
  Q 74.44 119.10 73.89 119.17
  Z
  M 72.18 117.51
  Q 71.97 118.27 72.76 118.32
  L 73.34 118.35
  Q 73.95 118.39 74.01 117.78
  Q 74.14 116.54 73.20 115.80
  Q 72.75 115.45 72.60 116.00
  L 72.18 117.51
  Z"
/>
</svg>
